<?xml version="1.0" encoding="UTF-8"?>
<svg id="_レイヤー_2" data-name="レイヤー_2" xmlns="http://www.w3.org/2000/svg" viewBox="0 0 180.89 160.86">
  <defs>
    <style>
      .cls-1 {
        fill: #63bdeb;
      }

      .cls-2 {
        fill: #f2a09d;
      }

      .cls-3 {
        fill: #df7594;
      }

      .cls-4 {
        fill: #e07594;
      }
    </style>
  </defs>
  <g id="_素材_xFF06_例" data-name="素材_xFF06_例">
    <g>
      <path class="cls-3" d="M41.45,124.98c3.38,10.31,8.58,20.24,15.53,29.64-3.3,3.82-8.18,6.24-13.62,6.24-9.93,0-17.99-8.05-17.99-17.99,0-9.29,7.05-16.94,16.09-17.89Z"/>
      <path class="cls-3" d="M38.67,114.46c.52,2.55,1.15,5.08,1.88,7.59L0,106.62c6.31-2.8,10.71-9.11,10.71-16.45,0-4.55-1.68-8.69-4.46-11.86l30.75,11.7c-.26,4.08-.25,8.16.02,12.23.28,4.11.83,8.22,1.65,12.22Z"/>
      <path class="cls-4" d="M110.12,12.77c0,16.08-3.55,31.48-10.56,45.8-10.98,9.44-19.49,20.63-25.31,33.25-.06.13-.12.26-.19.39l-.04.1c-7.84,17.25-10.23,36.33-7.1,56.71.6,3.9,1.4,7.83,2.39,11.75-2.77-3.03-5.37-6.18-7.76-9.41-.48-.65-.95-1.3-1.42-1.96-5.45-7.69-9.66-15.73-12.61-24.03-1.34-3.77-2.42-7.59-3.23-11.45-.04-.19-.08-.39-.12-.58-.76-3.76-1.29-7.62-1.54-11.48-.22-3.24-.25-6.5-.11-9.75.3-7.18,1.48-14.37,3.51-21.49,2.9-10.17,7.5-19.97,13.65-29.13C71.72,23.55,88.84,9.27,109.34,0c.52,4.22.77,8.5.77,12.77Z"/>
      <path class="cls-2" d="M150.62,39.29c-3.22,17.75-9.62,34.57-19.06,50.05-29.14,12.05-49.52,38.91-56.87,69.8-.64-2.55-1.22-5.15-1.77-8.24,0,0-.25-1.39-.45-2.73-1.67-10.86-1.14-21.1-1.14-21.1.59-11.54,3.24-22.59,8-32.84,0,0,7.79-16.31,20.47-28.3,1.33-1.26,2.7-2.48,4.11-3.67,13.07-11.08,29.15-18.94,46.72-22.96Z"/>
      <path class="cls-1" d="M180.89,86.82c-5.78,12.93-15.19,26.43-26.85,38.5-1.09-.05-2.04-.07-2.93-.07-3.25,0-5.38.34-8.91.92-.69.11-1.44.24-2.27.36-14.77,2.32-28.74,8.18-41.52,17.41-6.48,4.68-12.57,10.15-18.21,16.33,1.6-6.34,3.67-12.42,6.2-18.17,6.58-14.97,16.1-27.26,28.28-36.52,6.04-4.59,12.72-8.43,19.88-11.42,12.07-5.04,25.18-7.59,38.96-7.59,2.44,0,4.9.08,7.36.25Z"/>
    </g>
  </g>
</svg>