<?xml version="1.0" encoding="UTF-8"?>
<svg id="_レイヤー_2" data-name="レイヤー 2" xmlns="http://www.w3.org/2000/svg" viewBox="0 0 614.21 154.09">
  <defs>
    <style>
      .cls-1 {
        fill: #fff;
      }
    </style>
  </defs>
  <g id="_素材_例" data-name="素材＆例">
    <g>
      <g>
        <path class="cls-1" d="M39.71,119.72c3.24,9.88,8.22,19.39,14.87,28.39-3.16,3.66-7.83,5.98-13.05,5.98-9.52,0-17.23-7.71-17.23-17.23,0-8.9,6.75-16.23,15.41-17.14Z"/>
        <path class="cls-1" d="M37.04,109.64c.49,2.44,1.1,4.87,1.8,7.27L0,102.13c6.04-2.68,10.26-8.72,10.26-15.76,0-4.36-1.61-8.33-4.28-11.36l29.46,11.2c-.25,3.91-.24,7.82.02,11.71.26,3.94.8,7.87,1.58,11.71Z"/>
        <path class="cls-1" d="M105.48,12.23c0,15.4-3.4,30.16-10.11,43.87-10.52,9.05-18.67,19.76-24.25,31.85-.06.12-.12.25-.18.38l-.04.1c-7.51,16.52-9.8,34.8-6.8,54.32.57,3.74,1.34,7.5,2.29,11.25-2.66-2.9-5.14-5.92-7.43-9.01-.46-.62-.91-1.25-1.36-1.88-5.22-7.37-9.26-15.07-12.08-23.02-1.29-3.61-2.32-7.27-3.09-10.97-.04-.18-.08-.37-.12-.55-.73-3.6-1.23-7.3-1.48-10.99-.21-3.1-.24-6.22-.1-9.34.29-6.87,1.42-13.76,3.36-20.58,2.78-9.75,7.18-19.13,13.07-27.9C68.7,22.56,85.1,8.87,104.74,0c.49,4.04.74,8.14.74,12.23Z"/>
        <path class="cls-1" d="M144.28,37.64c-3.08,17-9.21,33.11-18.26,47.94-27.91,11.54-47.43,37.27-54.48,66.86-.62-2.44-1.17-4.93-1.7-7.89,0,0-.24-1.33-.44-2.62-1.6-10.4-1.09-20.21-1.09-20.21.56-11.05,3.11-21.64,7.66-31.46,0,0,7.46-15.62,19.61-27.11,1.28-1.21,2.59-2.38,3.94-3.52,12.52-10.61,27.92-18.15,44.76-21.99Z"/>
        <path class="cls-1" d="M173.27,83.16c-5.54,12.38-14.55,25.32-25.72,36.88-1.05-.05-1.96-.07-2.8-.07-3.11,0-5.15.33-8.53.88-.66.11-1.38.23-2.18.35-14.15,2.23-27.53,7.84-39.78,16.67-6.21,4.48-12.04,9.72-17.44,15.65,1.53-6.07,3.52-11.9,5.94-17.4,6.3-14.34,15.42-26.11,27.09-34.98,5.78-4.39,12.19-8.07,19.05-10.94,11.56-4.82,24.12-7.27,37.32-7.27,2.33,0,4.69.08,7.05.24Z"/>
      </g>
      <g>
        <path class="cls-1" d="M199.85,39.02h-10.87l8.28-12.38v-.14h23.83v7.2h-4.75v5.33h-9.5v-5.33h-3.38l-3.6,5.33ZM226.99,63.43h26.21v16.56c0,3.31-2.66,5.98-5.98,5.98h-3.53v-15.48h-16.71v15.48h-9.5v-15.48h-7.34l-10.37,15.48h-10.8l10.37-15.48h-6.77v-17.86h24.91v-3.6h-24.91v-7.06h57.1v17.86h-22.68v3.6ZM202.08,59.83v3.6h15.41v-3.6h-15.41ZM253.21,26.49v7.2h-4.75v5.33h-9.5v-5.33h-3.38l-3.6,5.33h-10.87l8.28-12.38v-.14h23.83ZM226.99,49.03v3.6h13.18v-3.6h-13.18Z"/>
        <path class="cls-1" d="M280.42,29.81v56.17h-9v-47.16h-7.85l2.23-9h14.62Z"/>
        <path class="cls-1" d="M321.89,29.81l-19.66,35.79h12.24v-7.7h9v7.7h3.96v9h-3.96v11.38h-9v-11.38h-21.89v-10.22l19.01-34.56h10.3Z"/>
        <path class="cls-1" d="M334.63,70.2v-24.63c0-10.37,8.71-16.06,17.43-16.06s17.35,5.69,17.35,16.06v24.63c0,10.37-8.71,16.06-17.35,16.06s-17.43-5.69-17.43-16.06ZM343.63,45.58v24.63c0,5.33,5.26,7.06,8.42,7.06s8.35-1.73,8.35-7.06v-24.63c0-5.33-5.26-7.06-8.35-7.06s-8.42,1.73-8.42,7.06Z"/>
        <path class="cls-1" d="M381,28.22h61.85v57.75h-61.85V28.22ZM390.5,77.04h42.84v-39.89h-42.84v39.89ZM427.08,69.91h-30.31v-26.21h30.31v26.21ZM405.62,62.79h12.53v-11.88h-12.53v11.88Z"/>
        <path class="cls-1" d="M525.15,29.81l-14.55,56.17h-8.21l-11.52-39.6-11.52,39.6h-8.21l-14.55-56.17h9.29l9.65,38.88,11.3-38.88h8.06l11.3,38.88,9.58-38.88h9.36Z"/>
        <path class="cls-1" d="M567.98,62.5v6.19h-29.52c.94,5.9,6.41,8.35,12.67,8.35,1.87,0,3.02-.22,5.69-1.44l4.03,8.42c-2.66,1.51-6.12,2.23-10.08,2.23-12.31,0-22.11-6.84-22.11-19.3v-4.46c0-12.46,9.87-19.3,19.66-19.3,11.16,0,19.66,8.21,19.66,19.3ZM557.98,60.84c-.72-4.9-4.68-8.42-9.65-8.42s-8.93,3.53-9.65,8.42h19.3Z"/>
        <path class="cls-1" d="M614.21,61.56v6.34c0,11.59-8.93,18.36-18,18.36-3.82,0-7.78-1.44-9.86-3.53v3.24h-9V29.81h9v16.71c1.51-1.51,4.97-3.31,9.86-3.31,9.07,0,18,6.77,18,18.36ZM605.21,61.56c0-6.77-5.62-9.29-9-9.29s-9.58,2.52-9.58,9.29v6.34c0,6.77,6.12,9.65,9.58,9.65s9-2.88,9-9.65v-6.34Z"/>
      </g>
      <g>
        <path class="cls-1" d="M277.02,118.85c-.43-1.43-.83-2.47-1.18-3.1-.35-.63-.52-.98-.52-1.05.13-.4.41-.55.83-.45.42.1.77.35,1.07.75,2.87,3.87,4.3,6.42,4.3,7.65,0,.33-.08.82-.25,1.45-.33,1.33-.95,2-1.85,2-.7,0-1.17-.82-1.4-2.45-.13-1-.3-1.93-.5-2.8-.97.27-1.98.53-3.05.8v16.95c.2,2.67.3,4.1.3,4.3,0,.67-1.2,1-3.6,1-.57,0-.9-.38-1-1.15l.25-4.15v-16.1c-1.3.33-3.4.68-6.3,1.05.07.47.1.92.1,1.38s-.12.67-.35.67c-.87-.8-1.85-2.72-2.95-5.75h1.25c1.7,0,3.33-.03,4.9-.1,3.6-4.5,6.9-10.03,9.9-16.6,3.67,2.3,5.5,3.78,5.5,4.45,0,.2-.22.3-.65.3s-1.08-.1-1.95-.3c-2.93,4.3-6.3,8.3-10.1,12,2.93-.17,5.35-.42,7.25-.75ZM261.22,105c.07-.33.32-.5.75-.5s.82.15,1.15.45c1.1.3,2.58,1.33,4.45,3.1,1.73-3,2.75-6.38,3.05-10.15,3.83,1.77,5.75,3,5.75,3.7,0,.27-.24.4-.73.4s-1.08-.07-1.77-.2c-.67,2.07-2.3,4.52-4.9,7.35.5.37.97.98,1.4,1.85.1.6.15,1.07.15,1.4,0,2.13-.48,3.2-1.45,3.2h-.05c-.3,0-.72-.5-1.25-1.5-1.97-3.87-4.02-6.72-6.15-8.55-.23-.2-.37-.3-.4-.3v-.25ZM262.82,141.1c-.23.37-.46.55-.67.55s-.33-.6-.33-1.8c1.77-5.37,2.65-9.87,2.65-13.5v-.6c3.87.67,5.8,1.28,5.8,1.85,0,.17-.63.28-1.9.35-1.13,4.83-2.98,9.22-5.55,13.15ZM275.87,125.55c-.17-.27-.16-.52.02-.75.18-.23.43-.26.75-.08.32.18.61.46.88.83,2.77,4.17,4.15,6.98,4.15,8.45,0,.83-.23,1.62-.7,2.38s-1.05,1.12-1.75,1.12-1.12-.65-1.25-1.95c-.4-4.53-1.1-7.87-2.1-10ZM286.62,138.65h15.85l2.7-2.9c2.5,1.93,3.75,3.13,3.75,3.6,0,.4-.38.6-1.15.6h-21.05c.13,1.83.2,2.83.2,3-.1.67-1.28,1-3.55,1-.57,0-.9-.38-1-1.15l.25-4.15v-36.55l-.25-2.2c-.03-.23.1-.35.4-.35s1.27.12,2.9.35c1.63.23,2.45.48,2.45.75l-1.5,1.6v36.4ZM298.77,131.9c.2,2.67.3,4.1.3,4.3-.1.67-1.2,1-3.3,1-.57,0-.9-.38-1-1.15l.25-4.15v-8.8c-.8,3.93-3.08,7.18-6.85,9.75-.33.13-.6.2-.8.2s-.3-.17-.3-.5.17-.7.5-1.1c3.23-4.6,5.25-9.35,6.05-14.25h-2.6c-.97.07-1.61.21-1.93.42-.32.22-.51.33-.57.33l-1.6-2.75c2.07.3,3.73.47,5,.5h3.1v-13.95c-.17-1.5-.25-2.3-.25-2.4s.14-.15.42-.15,1.2.12,2.75.35c1.55.23,2.33.48,2.33.75l-1.5,1.6v13.8l3.4.05,2.35-3.05c2.13,1.83,3.43,3.13,3.9,3.9,0,.4-.37.6-1.1.6h-8.55v1.8c1.93.67,4.15,2.58,6.65,5.75,1.27,1.6,1.9,2.85,1.9,3.75,0,.13-.02.25-.05.35-.43,2.03-1.07,3.05-1.9,3.05-.3,0-.72-.73-1.25-2.2-1.23-3.17-3.02-6.2-5.35-9.1v11.3ZM287.72,102.95c.07-.23.25-.35.55-.35s.65.22,1.05.65c2.93,3.2,4.4,5.63,4.4,7.3,0,2.13-.67,3.2-2,3.2-.47,0-.83-.15-1.1-.45-.47-.9-.8-2.42-1-4.55-.47-1.87-1.1-3.8-1.9-5.8ZM300.17,113.85c-.4,0-.6-.22-.6-.65-.03-.3.08-.67.35-1.1,1.13-2.67,1.73-5.33,1.8-8,.07-.87.23-1.3.5-1.3,3.67,1.4,5.5,2.32,5.5,2.75,0,.17-.3.25-.9.25h-1.4c-.8,2.5-2.3,5.13-4.5,7.9-.27.1-.52.15-.75.15Z"/>
        <path class="cls-1" d="M330.07,118.7c-.03-.1-.23-.51-.6-1.23-.37-.72-.77-1.36-1.22-1.92-.45-.57-.68-.88-.68-.95.07-.4.31-.58.73-.55.42.03.81.2,1.17.5,3.37,2.5,5.05,4.9,5.05,7.2,0,1.3-.57,2.03-1.7,2.2h-.2c-.67,0-1.22-.73-1.65-2.2-.1-.4-.2-.78-.3-1.15-1.27.43-2.33.78-3.2,1.05v16.95c.2,2.67.3,4.1.3,4.3,0,.67-1.2,1-3.6,1-.57,0-.9-.38-1-1.15l.25-4.15v-16.1c-1.67.33-3.42.65-5.25.95l-1.3,2.15c-.87-.8-1.85-2.72-2.95-5.75h1.25c1.7,0,3.33-.03,4.9-.1,3.4-4.53,6.7-10.07,9.9-16.6,3.67,1.63,5.5,2.75,5.5,3.35,0,.47-.62.7-1.85.7h-.75c-3.77,5.13-6.97,9.27-9.6,12.4,2.53-.1,4.8-.4,6.8-.9ZM314.22,105c.07-.33.32-.5.75-.5s.82.15,1.15.45c1.1.3,2.58,1.33,4.45,3.1,1.3-2.9,2.32-6.28,3.05-10.15,3.83,1.43,5.75,2.67,5.75,3.7,0,.13-.83.42-2.5.85-1.03,2.6-2.57,5.03-4.6,7.3.4.37.77.78,1.1,1.25.1.6.15,1.07.15,1.4,0,2.13-.48,3.2-1.45,3.2h-.05c-.3,0-.72-.5-1.25-1.5-1.97-3.87-4.02-6.72-6.15-8.55-.23-.2-.37-.3-.4-.3v-.25ZM316.12,141.1c-.23.37-.51.55-.83.55s-.48-.6-.48-1.8c1.77-5.37,2.65-9.87,2.65-13.5v-.6c3.3,0,5.23.62,5.8,1.85-.07.37-.7.77-1.9,1.2-.83,3.73-2.58,7.83-5.25,12.3ZM328.72,125.6c-.17-.27-.16-.52.03-.75.18-.23.43-.26.75-.07.32.18.61.46.88.82,2.77,4.17,4.15,6.98,4.15,8.45,0,.83-.23,1.62-.7,2.38-.47.75-1.05,1.12-1.75,1.12s-1.12-.65-1.25-1.95c-.4-4.53-1.1-7.87-2.1-10ZM344.82,126.05c-.37.4-.57.77-.6,1.1-.6,8.27-4.35,13.98-11.25,17.15l-.65.15c-.5,0-.75-.37-.75-1.1,0-.3.18-.57.55-.8,5.6-3.73,8.4-9.15,8.4-16.25v-.25l-.25-2.35c-.03-.23.1-.35.4-.35.13,0,1.11.12,2.92.35,1.82.23,2.73.48,2.73.75l-1.5,1.6ZM335.12,128.4c-1.5,0-2.25-.57-2.25-1.7,0-.53.2-1.22.6-2.05,1.53-1.97,2.45-4.53,2.75-7.7.03-.37.33-.55.9-.55.47,0,.73.55.8,1.65l.1,1.45h17.45l2.8-3c2.43,2.03,3.65,3.48,3.65,4.35,0,.2-.48.3-1.45.3l-4.7,6.25c-.33.43-.77.43-1.3,0l1.1-6.25h-17.5c-.13,4.83-1.12,7.25-2.95,7.25ZM357.47,114.6h-16.55l-3.1.5-2.8-2.05v-.2c0-.07.07-.13.2-.2,1.87.3,4.17.47,6.9.5h2.55v-6.45h-4.35l-2.9.5-2.8-2.05v-.15c0-.07.07-.15.2-.25,1.93.3,4,.47,6.2.5h3.65v-3.65l-.25-2.2c-.03-.23.1-.35.4-.35.13,0,1.06.12,2.77.35s2.58.48,2.58.75l-1.5,1.6v3.5h4.7l2.85-3.2c2.53,2.07,4,3.37,4.4,3.9,0,.5-.37.75-1.1.75h-10.85v6.45h2.65l2.85-3.2c2.53,2.07,4,3.37,4.4,3.9,0,.5-.37.75-1.1.75ZM361.17,140.8c0,1.97-1.52,2.95-4.55,2.95h-5.05c-2.57,0-3.85-1.27-3.85-3.8v-14.1l-.25-2.15c-.03-.23.1-.35.4-.35.13,0,1.03.12,2.7.35,1.67.23,2.5.48,2.5.75l-1.5,1.6v11.95c0,1.3.53,1.95,1.6,1.95h1.25c1.63,0,2.57-2.05,2.8-6.15l.2-3.5c.3-1.97.66-2.95,1.08-2.95s.69.97.82,2.9l.3,7.4.95,2.1c.4.37.6.72.6,1.05Z"/>
        <path class="cls-1" d="M383.7,135.1c-.23.02-.44.04-.63.04-.75,0-1.12-.2-1.12-.59,0-.3.44-.57,1.33-.8,3.73-1.07,6.51-2.82,8.33-5.25,1.56-2.1,2.35-4.89,2.35-8.37,0-2.43-.63-4.25-1.89-5.46-1.87-1.84-3.94-2.77-6.23-2.77h-.42c-.42,0-.79.04-1.12.11-1.07,6.44-2.13,10.78-3.19,13.02-1.05,2.24-2.08,3.8-3.08,4.67-1,.88-1.8,1.31-2.38,1.31h-.38c-1.33,0-2.39-.96-3.19-2.87-1.12-1.56-1.68-2.82-1.68-3.78v-.03c0-2.12.57-4.23,1.7-6.32,1.13-2.09,2.83-3.93,5.11-5.53s4.78-2.41,7.51-2.43c3.71,0,6.64,1.05,8.79,3.15,2.12,2.52,3.19,5.07,3.19,7.66,0,3.9-1.3,7.15-3.9,9.75-2.6,2.6-5.63,4.1-9.08,4.5ZM382.26,112.18c-1.77.35-3.38,1.17-4.83,2.45-1.45,1.28-2.51,2.6-3.19,3.94-.68,1.34-1.02,3.11-1.02,5.3s.71,3.54,2.14,4.02h.21c.79,0,1.57-.52,2.34-1.57,1.89-2.47,3.34-7.19,4.34-14.14Z"/>
        <path class="cls-1" d="M436.37,139.7h6.95c1.47,0,2.32-1.62,2.55-4.85l.45-6.1c.3-1.97.56-2.95.78-2.95s.39.97.52,2.9l.3,8.7.7,2.1c.9.83,1.35,1.43,1.35,1.8,0,1.47-1.58,2.2-4.75,2.2h-10.1c-3.13,0-4.7-1.67-4.7-5,0-5.8-.02-11.43-.05-16.9h-5c-.03.37-.07.73-.1,1.1-.7,10.03-6.57,17.12-17.6,21.25h-.65c-.5-.03-.75-.25-.75-.65s.18-.68.55-.85c9.2-3.93,13.98-10.52,14.35-19.75l.05-1.1h-10.8c-1.33,0-2.45.17-3.35.5l-2.3-2.45c.03-.07.08-.13.15-.2,1.8.3,3.83.45,6.1.45h14.9l.05-8.85h-9.75c-1.4,2.57-3.2,5.13-5.4,7.7-.63.27-1.05.23-1.25-.1-.2-.33-.15-.82.15-1.45,3.23-4.73,5.38-10.53,6.45-17.4,3.1.57,5.05,1.42,5.85,2.55l-2.25.75c-.6,1.63-1.53,3.72-2.8,6.25h9v-7l-.25-2.2v-.2c0-.1.03-.15.1-.15h.55c.17,0,1.02.12,2.57.35,1.55.23,2.33.48,2.33.75,0,.17-.25.39-.75.67s-.75.59-.75.92v6.85h8.9c.7-.8,1.6-1.72,2.7-2.75,2.67,1.97,4,3.27,4,3.9,0,.33-.2.52-.6.55h-15v8.85h14.8c.93-.93,1.83-1.85,2.7-2.75,2.67,1.97,4,3.27,4,3.9,0,.33-.2.52-.6.55h-16.5v15.35c0,1.83.73,2.75,2.2,2.75Z"/>
        <path class="cls-1" d="M483.07,139.65l.3,2.75c.1,1.03-1.08,1.55-3.55,1.55-.73,0-1.07-.4-1-1.2l.25-3.15v-1.6h-15.55l-3.4.4-2.35-1.5c-.03-.1-.05-.23-.05-.38s.12-.28.35-.38c1.9.33,4.18.52,6.85.55h14.15v-3.5h-9.2l.2,1.6c-.07.67-1.23,1-3.5,1-.57,0-.9-.38-1-1.15l.2-2.65v-7.15l-.2-2.35c0-.17.07-.25.2-.25l5.05,1.55h8.25v-2.4h-14.6l-3.4.4-2.35-1.5c-.1-.4,0-.65.3-.75,1.9.33,4.18.52,6.85.55h13.2v-1.7l-.2-2.35c0-.17.14-.25.42-.25s1.24.16,2.88.48c1.63.32,2.45.61,2.45.88,0,.17-.26.47-.77.92-.52.45-.78.84-.78,1.17v.85h13.55l3.05-2.95c2.53,2.07,3.8,3.28,3.8,3.65-.03.4-.38.6-1.05.6h-19.35v2.4h7.9l3.1-2.1c2.97,1.8,4.45,2.98,4.45,3.55l-2.1,2.2v3.95l.3,3.4c-.1.67-1.28,1-3.55,1-.67,0-1-.35-1-1.05,0-.53.07-1.05.2-1.55h-9.3v3.5h14.55l3.05-3.2c2.57,2.17,3.85,3.47,3.85,3.9-.03.4-.55.6-1.55.6h-19.9v1.65ZM462.97,119.7c-.47.13-.7-.18-.7-.95,0-.27.12-.53.35-.8,5.77-1,9.28-3.02,10.55-6.05-4.57,1.97-8.32,3.07-11.25,3.3-.2,1.53-.43,2.3-.7,2.3-.73,0-1.8-1.92-3.2-5.75h1.2c5.73,0,10.55-.57,14.45-1.7.03-.33.05-.67.05-1v-.65h-7.8c-1.13.03-1.9.16-2.3.38s-.78.42-1.15.62l-2.4-2.3c-.1-.1-.15-.23-.15-.4s.13-.22.4-.15c1.93.33,4.27.52,7,.55h6.4v-3.15h-8.7c-1,.03-1.79.17-2.38.4-.58.23-.94.35-1.08.35l-2.4-2.05c-.1-.1-.15-.23-.15-.4s.13-.22.4-.15c1.93.33,4.27.52,7,.55h7.3v-1.3l-.2-2.2c-.03-.23.08-.35.35-.35.13,0,1.07.12,2.8.38,1.73.25,2.6.49,2.6.73l-1.55,1.6v9.8c0,3.4-4.67,6.12-14,8.15-.23.07-.48.15-.75.25ZM479.02,128v-2.7h-9.15l-.05,2.7h9.2ZM479.02,132.05v-2.8h-9.2v2.8h9.2ZM483.02,128h9.4v-1.6c0-.47-.1-.83-.3-1.1h-9.05l-.05,2.7ZM483.02,132.05h9.4v-2.8h-9.4v2.8ZM485.07,113.65v-12.35l-.2-2.2c-.03-.23.08-.35.35-.35s1.23.12,2.9.38c1.67.25,2.5.49,2.5.72l-1.55,1.6v1.15h7.9c1.1-1.13,2.2-2.27,3.3-3.4,2.5,1.93,3.75,3.2,3.75,3.8s-.55.9-1.65.9h-13.3v3.65h6.9c1.1-1.13,2.2-2.27,3.3-3.4,2.5,1.93,3.75,3.2,3.75,3.8s-.55.9-1.65.9h-12.3v3.8h8.65c1.1-1.13,2.2-2.27,3.3-3.4,2.5,1.93,3.75,3.2,3.75,3.8s-.55.9-1.65.9h-14.05v.2l.3,3.75c0,.07-.02.25-.05.55-.07.67-1.23,1-3.5,1-.67,0-1-.53-1-1.58s.08-2.46.25-4.22Z"/>
        <path class="cls-1" d="M516.33,124.64h-.25c-.63-.05-1.28-.27-1.94-.67-.67-.4-1.24-.88-1.73-1.43-.49-.56-.73-1.02-.73-1.37s.19-.53.56-.53c.14,0,.4.19.79.56.39.37.74.56,1.05.56s.66-.1,1.03-.31c1.84-1.56,3.48-3.11,4.92-4.64s2.23-2.39,2.4-2.57c.33-.54.72-.81,1.19-.81s1.11.37,1.92,1.12c1.03,1.59,2.84,3.51,5.44,5.76,2.6,2.25,4.89,3.91,6.88,4.99.98.51,1.51.77,1.58.77s.16.03.26.09c.1.06.37.4.8,1.03.43.63.65,1.17.65,1.61,0,.77-.41,1.16-1.23,1.16-.35,0-.77-.09-1.26-.28l-.56-.28c-2.43-1.61-4.84-3.73-7.23-6.37-2.39-2.64-4.31-4.84-5.76-6.62-.33-.56-.71-.84-1.16-.84s-.8.2-1.08.59c-1.4,1.98-3.03,4.14-4.9,6.47-.09.12-.22.39-.38.82-.16.43-.34.73-.53.91-.19.18-.43.26-.73.26Z"/>
      </g>
    </g>
  </g>
</svg>