<?xml version="1.0" encoding="UTF-8"?>
<svg id="_レイヤー_2" data-name="レイヤー 2" xmlns="http://www.w3.org/2000/svg" viewBox="0 0 335.89 379.21">
  <defs>
    <style>
      .cls-1 {
        fill: #63bdeb;
      }

      .cls-2 {
        fill: #f2a09d;
      }

      .cls-3 {
        fill: #df7594;
      }

      .cls-4 {
        fill: #e07594;
      }
    </style>
  </defs>
  <g id="_素材_例" data-name="素材＆例">
    <g>
      <g>
        <path class="cls-3" d="M99.94,206.63c5.59,17.04,14.19,33.47,25.67,49.01-5.45,6.31-13.52,10.31-22.52,10.31-16.42,0-29.74-13.31-29.74-29.74,0-15.36,11.65-28.01,26.6-29.58Z"/>
        <path class="cls-3" d="M95.34,189.23c.85,4.21,1.89,8.4,3.11,12.55l-67.04-25.51c10.43-4.62,17.7-15.06,17.7-27.2,0-7.52-2.79-14.37-7.38-19.61l50.85,19.34c-.43,6.75-.42,13.5.04,20.22.45,6.8,1.37,13.59,2.72,20.21Z"/>
        <path class="cls-4" d="M213.46,21.11c0,26.58-5.87,52.05-17.45,75.72-18.15,15.62-32.22,34.11-41.85,54.97-.1.21-.2.44-.31.65l-.07.17c-12.97,28.52-16.91,60.07-11.73,93.76.98,6.45,2.31,12.94,3.95,19.42-4.59-5.01-8.88-10.21-12.83-15.56-.8-1.08-1.58-2.15-2.34-3.24-9.01-12.72-15.98-26.01-20.85-39.73-2.22-6.23-4-12.54-5.34-18.93-.07-.32-.14-.64-.2-.96-1.26-6.21-2.13-12.6-2.55-18.98-.36-5.36-.42-10.74-.18-16.13.5-11.86,2.45-23.76,5.8-35.53,4.8-16.82,12.39-33.02,22.56-48.15C149.99,38.94,178.3,15.32,212.18,0c.85,6.98,1.28,14.06,1.28,21.11Z"/>
        <path class="cls-2" d="M280.44,64.96c-5.32,29.35-15.9,57.15-31.51,82.75-48.18,19.92-81.87,64.33-94.03,115.4-1.06-4.22-2.02-8.51-2.93-13.62,0,0-.41-2.3-.75-4.52-2.76-17.95-1.88-34.89-1.88-34.89.97-19.08,5.36-37.34,13.22-54.3,0,0,12.87-26.96,33.84-46.79,2.2-2.09,4.47-4.1,6.8-6.07,21.62-18.31,48.19-31.32,77.25-37.95Z"/>
        <path class="cls-1" d="M330.48,143.54c-9.56,21.37-25.12,43.7-44.39,63.65-1.81-.08-3.38-.12-4.84-.12-5.38,0-8.89.57-14.72,1.51-1.14.19-2.39.39-3.76.6-24.43,3.84-47.52,13.53-68.65,28.78-10.71,7.73-20.79,16.78-30.11,27.01,2.65-10.48,6.07-20.54,10.26-30.03,10.88-24.75,26.62-45.06,46.76-60.38,9.98-7.58,21.04-13.93,32.87-18.87,19.96-8.33,41.63-12.55,64.41-12.55,4.03,0,8.1.14,12.17.41Z"/>
      </g>
      <g>
        <path class="cls-4" d="M8.59,295.94H0l6.54-9.78v-.11h18.83v5.69h-3.75v4.21h-7.51v-4.21h-2.67l-2.84,4.21ZM30.03,315.22h20.7v13.08c0,2.62-2.1,4.72-4.72,4.72h-2.79v-12.23h-13.2v12.23h-7.51v-12.23h-5.8l-8.19,12.23H0l8.19-12.23H2.84v-14.11h19.68v-2.84H2.84v-5.57h45.1v14.11h-17.92v2.84ZM10.35,312.38v2.84h12.17v-2.84h-12.17ZM50.73,286.05v5.69h-3.75v4.21h-7.51v-4.21h-2.67l-2.84,4.21h-8.59l6.54-9.78v-.11h18.83ZM30.03,303.85v2.84h10.41v-2.84h-10.41Z"/>
        <path class="cls-4" d="M72.23,288.66v44.36h-7.11v-37.25h-6.2l1.76-7.11h11.55Z"/>
        <path class="cls-4" d="M104.99,288.66l-15.53,28.27h9.67v-6.09h7.11v6.09h3.13v7.11h-3.13v8.99h-7.11v-8.99h-17.29v-8.08l15.02-27.3h8.13Z"/>
        <path class="cls-4" d="M115.05,320.57v-19.45c0-8.19,6.88-12.68,13.76-12.68s13.71,4.49,13.71,12.68v19.45c0,8.19-6.88,12.68-13.71,12.68s-13.76-4.49-13.76-12.68ZM122.16,301.12v19.45c0,4.21,4.15,5.57,6.65,5.57s6.6-1.36,6.6-5.57v-19.45c0-4.21-4.15-5.57-6.6-5.57s-6.65,1.37-6.65,5.57Z"/>
        <path class="cls-4" d="M151.68,287.41h48.86v45.62h-48.86v-45.62ZM159.18,325.97h33.84v-31.51h-33.84v31.51ZM188.08,320.34h-23.95v-20.7h23.95v20.7ZM171.13,314.71h9.9v-9.39h-9.9v9.39Z"/>
        <path class="cls-4" d="M265.54,288.66l-11.49,44.36h-6.48l-9.1-31.28-9.1,31.28h-6.48l-11.49-44.36h7.34l7.62,30.71,8.93-30.71h6.37l8.93,30.71,7.56-30.71h7.39Z"/>
        <path class="cls-4" d="M299.38,314.48v4.89h-23.32c.74,4.66,5.06,6.6,10.01,6.6,1.48,0,2.39-.17,4.49-1.14l3.19,6.65c-2.1,1.19-4.83,1.76-7.96,1.76-9.73,0-17.46-5.4-17.46-15.24v-3.53c0-9.84,7.79-15.24,15.53-15.24,8.82,0,15.53,6.48,15.53,15.24ZM291.47,313.18c-.57-3.87-3.7-6.65-7.62-6.65s-7.05,2.79-7.62,6.65h15.24Z"/>
        <path class="cls-4" d="M335.89,313.74v5.01c0,9.16-7.05,14.5-14.22,14.5-3.01,0-6.14-1.14-7.79-2.79v2.56h-7.11v-44.36h7.11v13.2c1.19-1.19,3.92-2.62,7.79-2.62,7.17,0,14.22,5.35,14.22,14.5ZM328.78,313.74c0-5.35-4.44-7.34-7.11-7.34s-7.56,1.99-7.56,7.34v5.01c0,5.35,4.83,7.62,7.56,7.62s7.11-2.27,7.11-7.62v-5.01Z"/>
      </g>
      <g>
        <path class="cls-4" d="M69.55,358.99c-.34-1.13-.65-1.95-.93-2.45-.28-.5-.41-.78-.41-.83.1-.32.32-.43.65-.36.33.08.61.28.85.59,2.26,3.05,3.4,5.07,3.4,6.04,0,.26-.07.64-.2,1.14-.26,1.05-.75,1.58-1.46,1.58-.55,0-.92-.64-1.11-1.93-.11-.79-.24-1.53-.39-2.21-.76.21-1.57.42-2.41.63v13.39c.16,2.11.24,3.24.24,3.4,0,.53-.95.79-2.84.79-.45,0-.71-.3-.79-.91l.2-3.28v-12.72c-1.03.26-2.69.54-4.98.83.05.37.08.73.08,1.09s-.09.53-.28.53c-.68-.63-1.46-2.15-2.33-4.54h.99c1.34,0,2.63-.03,3.87-.08,2.84-3.55,5.45-7.93,7.82-13.11,2.9,1.82,4.34,2.99,4.34,3.51,0,.16-.17.24-.51.24s-.86-.08-1.54-.24c-2.32,3.4-4.98,6.56-7.98,9.48,2.32-.13,4.23-.33,5.73-.59ZM57.06,348.05c.05-.26.25-.39.59-.39s.64.12.91.36c.87.24,2.04,1.05,3.51,2.45,1.37-2.37,2.17-5.04,2.41-8.02,3.03,1.4,4.54,2.37,4.54,2.92,0,.21-.19.32-.57.32s-.85-.05-1.4-.16c-.53,1.63-1.82,3.57-3.87,5.81.39.29.76.78,1.11,1.46.08.47.12.84.12,1.11,0,1.68-.38,2.53-1.15,2.53h-.04c-.24,0-.57-.39-.99-1.18-1.55-3.05-3.17-5.3-4.86-6.75-.18-.16-.29-.24-.32-.24v-.2ZM58.33,376.57c-.18.29-.36.44-.53.44s-.26-.47-.26-1.42c1.4-4.24,2.09-7.79,2.09-10.66v-.47c3.05.53,4.58,1.01,4.58,1.46,0,.13-.5.22-1.5.28-.9,3.82-2.36,7.28-4.38,10.39ZM68.64,364.29c-.13-.21-.13-.41.02-.59.14-.18.34-.2.59-.06.25.15.48.36.69.65,2.18,3.29,3.28,5.52,3.28,6.67,0,.66-.18,1.28-.55,1.88s-.83.89-1.38.89-.88-.51-.99-1.54c-.32-3.58-.87-6.21-1.66-7.9ZM77.13,374.63h12.52l2.13-2.29c1.97,1.53,2.96,2.48,2.96,2.84,0,.32-.3.47-.91.47h-16.63c.1,1.45.16,2.24.16,2.37-.08.53-1.01.79-2.8.79-.45,0-.71-.3-.79-.91l.2-3.28v-28.87l-.2-1.74c-.03-.18.08-.28.32-.28s1,.09,2.29.28c1.29.18,1.94.38,1.94.59l-1.18,1.26v28.75ZM86.73,369.3c.16,2.11.24,3.24.24,3.4-.08.53-.95.79-2.61.79-.45,0-.71-.3-.79-.91l.2-3.28v-6.95c-.63,3.11-2.44,5.67-5.41,7.7-.26.11-.47.16-.63.16s-.24-.13-.24-.39.13-.55.39-.87c2.55-3.63,4.15-7.39,4.78-11.26h-2.05c-.76.05-1.27.16-1.52.34-.25.17-.4.26-.45.26l-1.26-2.17c1.63.24,2.95.37,3.95.39h2.45v-11.02c-.13-1.18-.2-1.82-.2-1.9s.11-.12.34-.12.95.09,2.17.28c1.22.18,1.84.38,1.84.59l-1.18,1.26v10.9l2.69.04,1.86-2.41c1.68,1.45,2.71,2.48,3.08,3.08,0,.32-.29.47-.87.47h-6.75v1.42c1.53.53,3.28,2.04,5.25,4.54,1,1.26,1.5,2.25,1.5,2.96,0,.11-.01.2-.04.28-.34,1.61-.84,2.41-1.5,2.41-.24,0-.57-.58-.99-1.74-.97-2.5-2.38-4.9-4.23-7.19v8.93ZM78,346.43c.05-.18.2-.28.43-.28s.51.17.83.51c2.32,2.53,3.48,4.45,3.48,5.77,0,1.69-.53,2.53-1.58,2.53-.37,0-.66-.12-.87-.36-.37-.71-.63-1.91-.79-3.59-.37-1.47-.87-3-1.5-4.58ZM87.83,355.04c-.32,0-.47-.17-.47-.51-.03-.24.07-.53.28-.87.89-2.11,1.37-4.21,1.42-6.32.05-.68.18-1.03.39-1.03,2.9,1.11,4.34,1.83,4.34,2.17,0,.13-.24.2-.71.2h-1.11c-.63,1.97-1.82,4.06-3.55,6.24-.21.08-.41.12-.59.12Z"/>
        <path class="cls-4" d="M111.45,358.87c-.03-.08-.18-.4-.47-.97-.29-.57-.61-1.07-.97-1.52-.36-.45-.53-.7-.53-.75.05-.32.24-.46.57-.43.33.03.64.16.93.39,2.66,1.97,3.99,3.87,3.99,5.69,0,1.03-.45,1.61-1.34,1.74h-.16c-.53,0-.96-.58-1.3-1.74-.08-.32-.16-.62-.24-.91-1,.34-1.84.62-2.53.83v13.39c.16,2.11.24,3.24.24,3.4,0,.53-.95.79-2.84.79-.45,0-.71-.3-.79-.91l.2-3.28v-12.72c-1.32.26-2.7.51-4.15.75l-1.03,1.7c-.68-.63-1.46-2.15-2.33-4.54h.99c1.34,0,2.63-.03,3.87-.08,2.69-3.58,5.29-7.95,7.82-13.11,2.9,1.29,4.34,2.17,4.34,2.65,0,.37-.49.55-1.46.55h-.59c-2.98,4.06-5.5,7.32-7.58,9.79,2-.08,3.79-.32,5.37-.71ZM98.93,348.05c.05-.26.25-.39.59-.39s.64.12.91.36c.87.24,2.04,1.05,3.51,2.45,1.03-2.29,1.83-4.96,2.41-8.02,3.03,1.13,4.54,2.11,4.54,2.92,0,.11-.66.33-1.97.67-.82,2.05-2.03,3.98-3.63,5.77.32.29.61.62.87.99.08.47.12.84.12,1.11,0,1.68-.38,2.53-1.15,2.53h-.04c-.24,0-.57-.39-.99-1.18-1.55-3.05-3.17-5.3-4.86-6.75-.18-.16-.29-.24-.32-.24v-.2ZM100.43,376.57c-.18.29-.4.44-.65.44s-.38-.47-.38-1.42c1.4-4.24,2.09-7.79,2.09-10.66v-.47c2.61,0,4.13.49,4.58,1.46-.05.29-.55.61-1.5.95-.66,2.95-2.04,6.19-4.15,9.72ZM110.38,364.32c-.13-.21-.12-.41.02-.59.14-.18.34-.2.59-.06.25.15.48.36.69.65,2.18,3.29,3.28,5.52,3.28,6.67,0,.66-.18,1.28-.55,1.88-.37.59-.83.89-1.38.89s-.88-.51-.99-1.54c-.32-3.58-.87-6.21-1.66-7.9ZM123.1,364.68c-.29.32-.45.61-.47.87-.47,6.53-3.44,11.04-8.89,13.55l-.51.12c-.39,0-.59-.29-.59-.87,0-.24.14-.45.43-.63,4.42-2.95,6.64-7.23,6.64-12.84v-.2l-.2-1.86c-.03-.18.08-.28.32-.28.1,0,.88.09,2.31.28,1.43.18,2.15.38,2.15.59l-1.18,1.26ZM115.44,366.54c-1.18,0-1.78-.45-1.78-1.34,0-.42.16-.96.47-1.62,1.21-1.55,1.94-3.58,2.17-6.08.03-.29.26-.43.71-.43.37,0,.58.43.63,1.3l.08,1.15h13.78l2.21-2.37c1.92,1.61,2.88,2.75,2.88,3.44,0,.16-.38.24-1.15.24l-3.71,4.94c-.26.34-.61.34-1.03,0l.87-4.94h-13.82c-.11,3.82-.88,5.73-2.33,5.73ZM133.09,355.64h-13.07l-2.45.39-2.21-1.62v-.16c0-.05.05-.1.16-.16,1.47.24,3.29.37,5.45.39h2.01v-5.09h-3.44l-2.29.39-2.21-1.62v-.12c0-.05.05-.12.16-.2,1.53.24,3.16.37,4.9.39h2.88v-2.88l-.2-1.74c-.03-.18.08-.28.32-.28.1,0,.84.09,2.19.28s2.03.38,2.03.59l-1.18,1.26v2.76h3.71l2.25-2.53c2,1.63,3.16,2.66,3.48,3.08,0,.39-.29.59-.87.59h-8.57v5.09h2.09l2.25-2.53c2,1.63,3.16,2.66,3.48,3.08,0,.39-.29.59-.87.59ZM136.01,376.33c0,1.55-1.2,2.33-3.59,2.33h-3.99c-2.03,0-3.04-1-3.04-3v-11.14l-.2-1.7c-.03-.18.08-.28.32-.28.1,0,.82.09,2.13.28,1.32.18,1.97.38,1.97.59l-1.18,1.26v9.44c0,1.03.42,1.54,1.26,1.54h.99c1.29,0,2.03-1.62,2.21-4.86l.16-2.76c.24-1.55.52-2.33.85-2.33s.55.76.65,2.29l.24,5.85.75,1.66c.32.29.47.57.47.83Z"/>
        <path class="cls-4" d="M153.81,371.83c-.18.02-.35.03-.5.03-.59,0-.88-.16-.88-.47,0-.24.35-.45,1.05-.64,2.95-.85,5.14-2.23,6.58-4.15,1.23-1.66,1.85-3.86,1.85-6.61,0-1.92-.5-3.35-1.49-4.31-1.47-1.46-3.11-2.18-4.92-2.18h-.33c-.33,0-.63.03-.88.08-.85,5.09-1.69,8.52-2.52,10.28-.83,1.77-1.64,3-2.43,3.69-.79.69-1.42,1.04-1.88,1.04h-.3c-1.05,0-1.89-.76-2.52-2.27-.88-1.23-1.33-2.23-1.33-2.99v-.03c0-1.68.45-3.34,1.34-4.99.89-1.65,2.24-3.11,4.04-4.37s3.77-1.9,5.93-1.92c2.93,0,5.24.83,6.94,2.49,1.68,1.99,2.52,4.01,2.52,6.05,0,3.08-1.03,5.64-3.08,7.7-2.06,2.05-4.45,3.24-7.17,3.55ZM152.68,353.73c-1.4.28-2.67.92-3.82,1.94-1.14,1.01-1.98,2.05-2.52,3.11-.53,1.06-.8,2.46-.8,4.19s.56,2.79,1.69,3.18h.17c.63,0,1.24-.41,1.85-1.24,1.49-1.95,2.64-5.68,3.43-11.17Z"/>
        <path class="cls-4" d="M195.41,375.46h5.49c1.16,0,1.83-1.28,2.01-3.83l.36-4.82c.24-1.55.44-2.33.61-2.33s.31.76.41,2.29l.24,6.87.55,1.66c.71.66,1.07,1.13,1.07,1.42,0,1.16-1.25,1.74-3.75,1.74h-7.98c-2.48,0-3.71-1.32-3.71-3.95,0-4.58-.01-9.03-.04-13.35h-3.95c-.03.29-.05.58-.08.87-.55,7.93-5.19,13.52-13.9,16.79h-.51c-.39-.03-.59-.2-.59-.51s.14-.54.43-.67c7.27-3.11,11.04-8.31,11.34-15.6l.04-.87h-8.53c-1.05,0-1.94.13-2.65.39l-1.82-1.93c.03-.05.07-.1.12-.16,1.42.24,3.03.36,4.82.36h11.77l.04-6.99h-7.7c-1.11,2.03-2.53,4.06-4.27,6.08-.5.21-.83.18-.99-.08-.16-.26-.12-.64.12-1.15,2.55-3.74,4.25-8.32,5.09-13.74,2.45.45,3.99,1.12,4.62,2.01l-1.78.59c-.47,1.29-1.21,2.94-2.21,4.94h7.11v-5.53l-.2-1.74v-.16c0-.08.03-.12.08-.12h.43c.13,0,.81.09,2.03.28,1.22.18,1.84.38,1.84.59,0,.13-.2.31-.59.53s-.59.47-.59.73v5.41h7.03c.55-.63,1.26-1.36,2.13-2.17,2.11,1.55,3.16,2.58,3.16,3.08,0,.26-.16.41-.47.43h-11.85v6.99h11.69c.74-.74,1.45-1.46,2.13-2.17,2.11,1.55,3.16,2.58,3.16,3.08,0,.26-.16.41-.47.43h-13.03v12.13c0,1.45.58,2.17,1.74,2.17Z"/>
        <path class="cls-4" d="M232.3,375.42l.24,2.17c.08.82-.86,1.22-2.8,1.22-.58,0-.84-.32-.79-.95l.2-2.49v-1.26h-12.28l-2.69.32-1.86-1.18c-.03-.08-.04-.18-.04-.3s.09-.22.28-.3c1.5.26,3.3.41,5.41.43h11.18v-2.76h-7.27l.16,1.26c-.05.53-.97.79-2.76.79-.45,0-.71-.3-.79-.91l.16-2.09v-5.65l-.16-1.86c0-.13.05-.2.16-.2l3.99,1.22h6.52v-1.9h-11.53l-2.69.32-1.86-1.18c-.08-.32,0-.51.24-.59,1.5.26,3.3.41,5.41.43h10.43v-1.34l-.16-1.86c0-.13.11-.2.34-.2s.98.13,2.27.38c1.29.25,1.94.48,1.94.69,0,.13-.2.37-.61.73-.41.36-.61.66-.61.93v.67h10.7l2.41-2.33c2,1.63,3,2.59,3,2.88-.03.32-.3.47-.83.47h-15.28v1.9h6.24l2.45-1.66c2.34,1.42,3.52,2.36,3.52,2.8l-1.66,1.74v3.12l.24,2.69c-.08.53-1.01.79-2.8.79-.53,0-.79-.28-.79-.83,0-.42.05-.83.16-1.22h-7.35v2.76h11.49l2.41-2.53c2.03,1.71,3.04,2.74,3.04,3.08-.03.32-.43.47-1.22.47h-15.72v1.3ZM216.43,359.66c-.37.11-.55-.14-.55-.75,0-.21.09-.42.28-.63,4.55-.79,7.33-2.38,8.33-4.78-3.61,1.55-6.57,2.42-8.89,2.61-.16,1.21-.34,1.82-.55,1.82-.58,0-1.42-1.51-2.53-4.54h.95c4.53,0,8.33-.45,11.41-1.34.03-.26.04-.53.04-.79v-.51h-6.16c-.9.03-1.5.12-1.82.3s-.62.34-.91.49l-1.9-1.82c-.08-.08-.12-.18-.12-.32s.1-.17.32-.12c1.53.26,3.37.41,5.53.43h5.06v-2.49h-6.87c-.79.03-1.42.13-1.88.32-.46.19-.74.28-.85.28l-1.9-1.62c-.08-.08-.12-.18-.12-.32s.1-.17.32-.12c1.53.26,3.37.41,5.53.44h5.77v-1.03l-.16-1.74c-.03-.18.07-.28.28-.28.1,0,.84.1,2.21.3,1.37.2,2.05.39,2.05.57l-1.22,1.26v7.74c0,2.69-3.69,4.83-11.06,6.44-.18.05-.38.12-.59.2ZM229.1,366.22v-2.13h-7.23l-.04,2.13h7.27ZM229.1,369.42v-2.21h-7.27v2.21h7.27ZM232.26,366.22h7.42v-1.26c0-.37-.08-.66-.24-.87h-7.15l-.04,2.13ZM232.26,369.42h7.42v-2.21h-7.42v2.21ZM233.88,354.89v-9.76l-.16-1.74c-.03-.18.07-.28.28-.28s.97.1,2.29.3c1.32.2,1.97.39,1.97.57l-1.22,1.26v.91h6.24c.87-.89,1.74-1.79,2.61-2.69,1.97,1.53,2.96,2.53,2.96,3s-.43.71-1.3.71h-10.51v2.88h5.45c.87-.89,1.74-1.79,2.61-2.69,1.97,1.53,2.96,2.53,2.96,3s-.43.71-1.3.71h-9.72v3h6.83c.87-.89,1.74-1.79,2.61-2.69,1.97,1.53,2.96,2.53,2.96,3s-.43.71-1.3.71h-11.1v.16l.24,2.96c0,.05-.01.2-.04.43-.05.53-.97.79-2.76.79-.53,0-.79-.42-.79-1.24s.07-1.94.2-3.34Z"/>
        <path class="cls-4" d="M258.58,363.57h-.19c-.5-.04-1.01-.21-1.53-.53-.53-.31-.98-.69-1.37-1.13-.39-.44-.58-.8-.58-1.08s.15-.42.44-.42c.11,0,.32.15.62.44.3.29.58.44.83.44s.52-.08.82-.25c1.46-1.23,2.75-2.46,3.88-3.66s1.76-1.88,1.89-2.03c.26-.42.57-.64.94-.64s.88.3,1.52.88c.81,1.25,2.24,2.77,4.3,4.55,2.05,1.78,3.87,3.09,5.43,3.94.77.41,1.19.61,1.24.61s.12.02.21.07c.08.05.29.32.64.82.34.5.51.92.51,1.27,0,.61-.32.91-.97.91-.28,0-.61-.07-1-.22l-.44-.22c-1.92-1.27-3.82-2.95-5.71-5.03-1.89-2.08-3.41-3.82-4.55-5.23-.26-.44-.56-.66-.91-.66s-.64.16-.86.47c-1.11,1.57-2.4,3.27-3.87,5.11-.07.09-.18.31-.3.65-.13.34-.27.58-.42.72-.15.14-.34.21-.58.21Z"/>
      </g>
    </g>
  </g>
</svg>