<svg xmlns="http://www.w3.org/2000/svg" xmlns:xlink="http://www.w3.org/1999/xlink" width="130.259" height="93.874" viewBox="0 0 130.259 93.874">
  <defs>
    <filter id="中マド_2" x="0" y="0" width="130.259" height="93.874" filterUnits="userSpaceOnUse">
      <feOffset dy="3" input="SourceAlpha"/>
      <feGaussianBlur stdDeviation="1" result="blur"/>
      <feFlood flood-color="#fff"/>
      <feComposite operator="in" in2="blur"/>
      <feComposite in="SourceGraphic"/>
    </filter>
  </defs>
  <g transform="matrix(1, 0, 0, 1, 0, 0)" filter="url(#中マド_2)">
    <g id="中マド_2-2" data-name="中マド 2" transform="translate(-2.37 -2.85)" fill="#80d3ff">
      <path d="M 114.6006164550781 90.22270965576172 L 20.39850044250488 90.22270965576172 C 17.5002498626709 90.22270965576172 14.73593330383301 89.40597534179688 12.40439987182617 87.86083221435547 C 10.21708297729492 86.41129302978516 8.45323371887207 84.366943359375 7.303533554077148 81.94876098632812 C 6.153883457183838 79.53063201904297 5.68179988861084 76.87217712402344 5.938333511352539 74.26079559326172 C 6.211800098419189 71.47721099853516 7.323383331298828 68.81777954101562 9.152899742126465 66.57003021240234 L 56.25351715087891 8.695528984069824 C 59.01936721801758 5.297278881072998 63.11851501464844 3.348278999328613 67.49990081787109 3.348278999328613 C 71.88126373291016 3.348278999328613 75.98014831542969 5.297262191772461 78.74556732177734 8.695512771606445 L 125.8470993041992 66.57001495361328 C 127.6766510009766 68.81776428222656 128.7882232666016 71.47714233398438 129.0616607666016 74.26064300537109 C 129.3182220458984 76.87199401855469 128.8461456298828 79.53041076660156 127.6964797973633 81.94849395751953 C 126.5467681884766 84.36672973632812 124.7828369140625 86.41114807128906 122.5953826904297 87.86076354980469 C 120.2636489868164 89.40596008300781 117.4991149902344 90.22270965576172 114.6006164550781 90.22270965576172 Z M 67.49966430664062 26.97271156311035 C 64.62895202636719 26.97271156311035 61.94345092773438 28.24966239929199 60.13176727294922 30.47611236572266 L 33.27399826049805 63.47639465332031 C 30.9371166229248 66.34814453125 30.47311592102051 70.20911407470703 32.06301498413086 73.5526123046875 C 33.65278244018555 76.89589691162109 36.94013214111328 78.97279357910156 40.64221572875977 78.97279357910156 L 94.35691833496094 78.97279357910156 C 98.05958557128906 78.97279357910156 101.3472671508789 76.89575958251953 102.9369812011719 73.55223083496094 C 104.5266342163086 70.20879364013672 104.0622863769531 66.34794616699219 101.7251358032227 63.47639465332031 L 74.86823272705078 30.4760799407959 C 73.05609893798828 28.24962997436523 70.37035369873047 26.97271156311035 67.49966430664062 26.97271156311035 Z" stroke="none"/>
      <path d="M 114.6006164550781 89.72270965576172 C 117.4005661010742 89.72270965576172 120.0696029663086 88.93473052978516 122.3191833496094 87.44396209716797 C 124.4309158325195 86.04454803466797 126.1342010498047 84.06999206542969 127.2449340820312 81.73379516601562 C 128.3555908203125 79.39774322509766 128.8117370605469 76.83048248291016 128.5640563964844 74.30953216552734 C 128.3002471923828 71.62409210205078 127.2266464233398 69.05696105957031 125.4592971801758 66.88562774658203 L 78.35774993896484 9.011096000671387 C 75.68771362304688 5.730062484741211 71.73016357421875 3.848278999328613 67.49990081787109 3.848278999328613 C 63.26959991455078 3.848278999328613 59.31179809570312 5.730079174041748 56.64131546020508 9.011129379272461 L 9.540683746337891 66.88566589355469 C 7.773366451263428 69.05697631835938 6.699766635894775 71.62416076660156 6.435949802398682 74.30967712402344 C 6.188283443450928 76.83066558837891 6.644450187683105 79.39797973632812 7.755083560943604 81.73407745361328 C 8.865799903869629 84.07021331787109 10.569016456604 86.044677734375 12.6806001663208 87.44404602050781 C 14.93000030517578 88.93476104736328 17.59880065917969 89.72270965576172 20.39850044250488 89.72270965576172 L 114.6006164550781 89.72270965576172 M 67.49966430664062 26.47271156311035 C 70.52143096923828 26.47271156311035 73.34851837158203 27.81684494018555 75.25603485107422 30.16047859191895 L 102.1129150390625 63.16076278686523 C 104.5730819702148 66.18346405029297 105.0618667602539 70.24749755859375 103.3885345458984 73.76692962646484 C 101.7151641845703 77.28643035888672 98.25444793701172 79.47279357910156 94.35691833496094 79.47279357910156 L 40.64221572875977 79.47279357910156 C 36.74528503417969 79.47279357910156 33.2849006652832 77.28659820556641 31.6114673614502 73.76734924316406 C 29.9378833770752 70.24786376953125 30.42631721496582 66.18369293212891 32.88619995117188 63.1607780456543 L 59.74394989013672 30.16054534912109 C 61.6510009765625 27.81687927246094 64.47785186767578 26.47271156311035 67.49966430664062 26.47271156311035 M 114.6006164550781 90.72270965576172 L 20.39850044250488 90.72270965576172 C 17.4017333984375 90.72270965576172 14.54189968109131 89.87722778320312 12.12818336486816 88.27761077880859 C 9.865133285522461 86.77787780761719 8.040666580200195 84.66362762451172 6.851966857910156 82.16345977783203 C 5.66331672668457 79.66329956054688 5.17531681060791 76.9136962890625 5.440733432769775 74.2119140625 C 5.723833560943604 71.33021545410156 6.873383522033691 68.57858276367188 8.765116691589355 66.25439453125 L 55.86571502685547 8.379912376403809 C 58.72695159912109 4.864479064941406 62.96744918823242 2.848278999328613 67.49990081787109 2.848278999328613 C 72.0323486328125 2.848278999328613 76.27259826660156 4.864479064941406 79.13338470458984 8.379912376403809 L 126.2349014282227 66.25439453125 C 128.1266326904297 68.57855987548828 129.2761840820312 71.33016204833984 129.5592651367188 74.21176147460938 C 129.82470703125 76.91352844238281 129.3367004394531 79.66307830810547 128.1480560302734 82.16317749023438 C 126.9593200683594 84.66345977783203 125.1347503662109 86.77776336669922 122.87158203125 88.27754211425781 C 120.4577026367188 89.877197265625 117.5976486206055 90.72270965576172 114.6006164550781 90.72270965576172 Z M 67.49966430664062 27.47271156311035 C 64.78006744384766 27.47271156311035 62.23591613769531 28.68242835998535 60.51959991455078 30.79169654846191 L 33.66180038452148 63.79201126098633 C 31.44793319702148 66.51259613037109 31.00833320617676 70.17036437988281 32.51456832885742 73.33789825439453 C 34.02064895629883 76.50521087646484 37.13498306274414 78.47279357910156 40.64221572875977 78.47279357910156 L 94.35691833496094 78.47279357910156 C 97.86471557617188 78.47279357910156 100.9793853759766 76.50508117675781 102.4854202270508 73.33753204345703 C 103.9914016723633 70.17008209228516 103.5514831542969 66.51244354248047 101.3373336791992 63.79201126098633 L 74.48043060302734 30.79169654846191 C 72.76366424560547 28.68242835998535 70.21926879882812 27.47271156311035 67.49966430664062 27.47271156311035 Z" stroke="none" fill="#80d3ff"/>
    </g>
  </g>
</svg>
